<svg id="Layer_3" enable-background="new 0 0 64 64" height="512" viewBox="0 0 64 64" width="512" xmlns="http://www.w3.org/2000/svg"><path d="m20 16v2h-18v-16h18v3z" fill="#b4dd7f"/><path d="m50 56h6 2l1 6h-12l1-6z" fill="#b27946"/><path d="m40 18v5c0 1.66-1.34 3-3 3-.83 0-1.58-.34-2.12-.88s-.88-1.29-.88-2.12v-5h5c.33 0 .65-.05.94-.16z" fill="#d3a06c"/><path d="m42 13-.69.09c-.06-.07-.12-.14-.19-.21-.54-.54-1.29-.88-2.12-.88h-5l2.83-2.83c.75-.75 1.77-1.17 2.83-1.17h10.68c.6 0 1.19.14 1.72.39l-.06.12c2.44 2.02 4 5.07 4 8.49v39h-6v-39c0-2.76-2.24-5-5-5-1.13 0-2.16.37-3 1z" fill="#d3a06c"/><path d="m34 12h5c.83 0 1.58.34 2.12.88.07.07.13.14.19.21.43.52.69 1.18.69 1.91 0 1.33-.86 2.45-2.06 2.84-.29.11-.61.16-.94.16h-5-2.39c-2.36 0-4.65-.7-6.61-2h-5v-11l3.1-1.86c1.24-.75 2.67-1.14 4.12-1.14h22.64c2.65 0 5.19 1.05 7.07 2.93l4.27 4.27c.51.51.8 1.21.8 1.93v.13c0 1.51-1.23 2.74-2.74 2.74h-.13c-.72 0-1.42-.29-1.93-.8l-4.03-4.03c-.32-.32-.7-.59-1.11-.78-.53-.25-1.12-.39-1.72-.39h-10.68c-1.06 0-2.08.42-2.83 1.17z" fill="#f0d0b4"/><path d="m34 30v11.51c0 9.69-6.6 18.14-16 20.49-9.4-2.35-16-10.8-16-20.49v-11.51c2.6 0 5.16-.42 7.59-1.23s4.73-2.01 6.81-3.57l1.6-1.2 1.6 1.2c4.15 3.12 9.21 4.8 14.4 4.8z" fill="#aab2bd"/><circle cx="18" cy="43" fill="#fcd770" r="12"/><path d="m17 34v2.142c-1.721.447-3 1.999-3 3.858 0 2.206 1.794 4 4 4 1.103 0 2 .897 2 2s-.897 2-2 2-2-.897-2-2h-2c0 1.859 1.279 3.411 3 3.858v2.142h2v-2.142c1.721-.447 3-1.999 3-3.858 0-2.206-1.794-4-4-4-1.103 0-2-.897-2-2s.897-2 2-2 2 .897 2 2h2c0-1.859-1.279-3.411-3-3.858v-2.142z"/><path d="m20.2 24.4-2.2-1.65-2.199 1.65c-3.956 2.966-8.858 4.6-13.801 4.6h-1v12.508c0 10.17 6.891 18.996 16.758 21.462l.242.061.242-.062c9.867-2.465 16.758-11.291 16.758-21.461v-12.508h-1c-4.943 0-9.845-1.634-13.8-4.6zm12.8 17.108c0 9.167-6.155 17.134-15 19.46-8.845-2.326-15-10.293-15-19.46v-10.529c5.031-.205 9.968-1.955 14.001-4.979l.999-.75 1 .75c4.032 3.024 8.969 4.774 14 4.979z"/><path d="m61.904 8.49-4.269-4.269c-2.076-2.076-4.839-3.221-7.778-3.221h-22.641c-1.63 0-3.231.443-4.631 1.282l-1.585.952v-2.234h-20v18h20v-2h3.704c2.068 1.31 4.448 2 6.901 2h1.395v4c0 2.206 1.794 4 4 4s4-1.794 4-4v-4.556c1.19-.694 2-1.97 2-3.444 0-.459-.094-.893-.237-1.304.662-.45 1.428-.696 2.237-.696 2.206 0 4 1.794 4 4v38h-1.847l-1.334 8h14.361l-1.334-8h-1.846v-38c0-1.026-.144-2.03-.394-3.001.686.632 1.595 1.001 2.529 1.001h.125c2.062 0 3.74-1.678 3.74-3.74v-.125c0-.985-.399-1.948-1.096-2.645zm-42.904 8.51h-16v-14h16zm20 6c0 1.103-.897 2-2 2s-2-.897-2-2v-4h4zm18.153 34 .666 4h-9.639l.666-4h.154 8zm-6.153-2v-38c0-3.309-2.691-6-6-6-1.207 0-2.35.367-3.339 1.035-.709-.636-1.635-1.035-2.661-1.035h-2.586l1.121-1.121c.567-.567 1.32-.879 2.122-.879h10.686c.378 0 .743.075 1.085.208l-.065.078c2.312 1.908 3.637 4.72 3.637 7.714v38zm10-43.74c0 .96-.78 1.74-1.74 1.74h-.125c-.458 0-.906-.186-1.23-.51l-4.025-4.025c-.945-.944-2.201-1.465-3.537-1.465h-10.686c-1.336 0-2.592.521-3.536 1.465l-2.535 2.535h-1.586v2h7c1.103 0 2 .897 2 2s-.897 2-2 2h-7.395c-2.16 0-4.253-.634-6.051-1.832l-.251-.168h-4.303v-9.434l2.613-1.569c1.089-.652 2.335-.997 3.603-.997h22.642c2.404 0 4.664.937 6.364 2.636l4.269 4.269c.324.324.51.772.51 1.23v.125z"/><path d="m5 43c0 7.168 5.832 13 13 13s13-5.832 13-13-5.832-13-13-13-13 5.832-13 13zm24 0c0 6.065-4.935 11-11 11s-11-4.935-11-11 4.935-11 11-11 11 4.935 11 11z"/><path d="m25 42h2v2h-2z"/><path d="m9 42h2v2h-2z"/></svg>